<?xml version="1.0" encoding="UTF-8"?>
<svg xmlns="http://www.w3.org/2000/svg" version="1.1" viewBox="0 0 2478 1817">
  <defs>
    <style>
      .cls-1 {
        fill: #fff;
      }

      .cls-2 {
        fill: #9fa2d1;
      }

      .cls-3 {
        fill: #d3d4eb;
      }

      .cls-4 {
        fill: #4e60ab;
      }
    </style>
  </defs>
  <!-- Generator: Adobe Illustrator 28.7.0, SVG Export Plug-In . SVG Version: 1.2.0 Build 4)  -->
  <g>
    <g id="Capa_2">
      <g>
        <g>
          <path class="cls-4" d="M629.14,744.13c-26.22-4.04-37.45,32.93-60.59,21.42-85.16-42.36-192.5-172.87-168.77-270.18,12.75-52.29-7.12-86.75-16.84-83.52-46.49,15.46-3.55,197.79,70.14,383.58,48.3-8.87,113.52-16.24,190.78-22.81-4.91-9.5-9.76-19.04-14.73-28.5Z"/>
          <path class="cls-3" d="M476.18,835.58s247.46-28.72,187.46,7.14c-21.01,12.56-43.84,25.17-67.31,37.24,101.56,32.73,222.83,64.91,351.22,89.88,20.76-15.89,41.64-32.11,62.55-48.63,0,0,418.24-29.91,337.12,32.73-25.57,19.74-52.14,39.41-79.43,58.88,42.54,2.86,84.75,4.41,126.21,4.41,466.25,0,669.38-78.5,687.45-178.19-3.85-2.51-7.85-4.99-12.13-7.41-36.02,14.16-78.52,26.13-124.92,31.69-137.43,16.43-255.91-29.45-258.29-49.29-1.99-16.62,85.51-73.02,191.58-85.89-109.29-16.89-265.79-17.12-449.36-4.49-284.49,19.56-577.48,31.39-784.38,48.98-.04,0-.06.01-.1.01-77.26,6.57-142.48,13.94-190.78,22.81-19.36,3.56-35.96,7.36-49.56,11.44,20.62,9.56,44.32,19.59,70.61,29.87.68-.39,1.36-.78,2.04-1.17Z"/>
          <g>
            <path class="cls-2" d="M399.79,495.38c-23.73,97.3,83.61,227.81,168.77,270.18,23.13,11.5,34.36-25.45,60.57-21.42-95.26-181.41-199.08-347.94-246.18-332.27,9.71-3.23,29.59,31.23,16.84,83.52Z"/>
            <path class="cls-2" d="M2097.52,850.81c-2.36-1.98-4.87-3.93-7.5-5.85-.18-.13-.36-.26-.54-.39-2.54-1.85-5.19-3.68-7.95-5.49-.03-.02-.05-.03-.07-.05h0c-18.07,99.68-221.21,178.19-687.45,178.19-41.46,0-83.67-1.55-126.21-4.41,27.29-19.47,53.86-39.14,79.43-58.88,81.12-62.64-337.12-32.73-337.12-32.73-20.91,16.52-41.79,32.73-62.55,48.63-128.39-24.97-249.66-57.15-351.22-89.88,23.47-12.07,46.3-24.68,67.31-37.24,60-35.86-187.46-7.14-187.46-7.14-.68.39-1.35.78-2.04,1.17-26.3-10.27-49.99-20.3-70.61-29.87-.02,0-.04-.02-.06-.02-.93.29-1.82.58-2.72.87-21.61,6.95-35.07,14.6-38.81,23-.19.42-.36.84-.5,1.26-.11.33-.19.67-.27,1-.2.85-.34,1.71-.34,2.58,0,10.3,17.34,25.12,48.48,42.59-57.19,41.32-86.08,78.54-46.23,82.03,29.47,2.58,82.9-13.25,141.64-37.6,90.2,36.64,215.98,77.25,357.59,111.34-257.8,190.7-472.55,324.27-435.43,360.06,59.18,57.07,415.62-101.29,728.19-304.47,96.79,13.25,194.67,21.2,288.7,21.2,489.26,0,688.79-86.46,688.79-193.1,0-24.66-11.44-47.01-35.04-66.81Z"/>
          </g>
        </g>
        <g>
          <path class="cls-4" d="M1686.12,814.02c2.37,19.84,120.86,65.72,258.29,49.29,46.4-5.55,88.91-17.53,124.92-31.69-34.59-8.77-61.1-24.04-99.5-48.82-58.05-37.46-82.11-52.77-92.13-54.66-106.07,12.86-193.57,69.27-191.58,85.89Z"/>
          <path class="cls-4" d="M350.48,956.88c2-50.11,93.27-76.57,113.02-87.12,43.52-23.23,12.68-34.18,12.68-34.18-86.44,48.96-151.79,106.59-125.7,121.3Z"/>
          <path class="cls-4" d="M1010.11,921.2c-316.44,250.06-627.27,430.3-583.22,472.79,52.65-28.72,81.58-84.3,125.64-109.69,598.55-344.87,457.57-363.1,457.57-363.1Z"/>
          <path class="cls-4" d="M780.38,814.2c0,11.81-9.57,21.38-21.38,21.38h-13.98c-11.8,0-21.37-9.57-21.37-21.38s9.57-21.38,21.37-21.38h13.98c11.81,0,21.38,9.57,21.38,21.38Z"/>
          <path class="cls-4" d="M872.94,814.2c0,11.81-9.57,21.38-21.38,21.38h-13.98c-11.81,0-21.38-9.57-21.38-21.38s9.57-21.38,21.38-21.38h13.98c11.81,0,21.38,9.57,21.38,21.38Z"/>
          <path class="cls-4" d="M965.5,814.2c0,11.81-9.57,21.38-21.37,21.38h-13.98c-11.8,0-21.37-9.57-21.37-21.38s9.57-21.38,21.37-21.38h13.98c11.81,0,21.37,9.57,21.37,21.38Z"/>
          <path class="cls-4" d="M1058.08,814.2c0,11.81-9.57,21.38-21.38,21.38h-13.98c-11.8,0-21.38-9.57-21.38-21.38s9.57-21.38,21.38-21.38h13.98c11.81,0,21.38,9.57,21.38,21.38Z"/>
          <path class="cls-4" d="M1150.64,814.2c0,11.81-9.57,21.38-21.38,21.38h-13.98c-11.81,0-21.38-9.57-21.38-21.38s9.57-21.38,21.38-21.38h13.98c11.81,0,21.38,9.57,21.38,21.38Z"/>
          <path class="cls-4" d="M1243.21,814.2c0,11.81-9.57,21.38-21.38,21.38h-13.98c-11.8,0-21.38-9.57-21.38-21.38s9.57-21.38,21.38-21.38h13.98c11.81,0,21.38,9.57,21.38,21.38Z"/>
          <path class="cls-4" d="M1335.78,814.2c0,11.81-9.57,21.38-21.38,21.38h-13.98c-11.8,0-21.38-9.57-21.38-21.38s9.57-21.38,21.38-21.38h13.98c11.81,0,21.38,9.57,21.38,21.38Z"/>
          <path class="cls-4" d="M1428.35,814.2c0,11.81-9.57,21.38-21.38,21.38h-13.98c-11.8,0-21.38-9.57-21.38-21.38s9.57-21.38,21.38-21.38h13.98c11.81,0,21.38,9.57,21.38,21.38Z"/>
          <path class="cls-4" d="M1520.91,814.2c0,11.81-9.57,21.38-21.38,21.38h-13.98c-11.81,0-21.38-9.57-21.38-21.38s9.57-21.38,21.38-21.38h13.98c11.81,0,21.38,9.57,21.38,21.38Z"/>
          <path class="cls-3" d="M499.29,910.27c-63.45,26.63-117.71,41.5-121.19,33.21-3.48-8.3,226.29-104.75,229.78-96.45,3.48,8.3-45.14,36.61-108.59,63.24Z"/>
          <path class="cls-3" d="M877.58,1226.68c-172.21,88.03-395.09,169.23-401.49,155.13-3.06-6.73,177.24-79.27,368.49-183.5,209.14-113.99,445.2-256.32,452.39-252.6,28.37,14.67-295.62,217.7-419.38,280.97Z"/>
          <path class="cls-3" d="M526.78,588.35c47.16,84.9,74.9,159.54,61.96,166.72-12.92,7.18-183.68-300.27-170.75-307.45,12.93-7.18,61.62,55.83,108.78,140.73Z"/>
          <path class="cls-1" d="M2005.41,910.04c.74,7.46-147.31,52.39-318.79,69.61-171.49,17.21-301.48.2-302.23-7.27-.74-7.46,9.21-23.36,179.8-17.48,175.95,6.05,440.46-52.32,441.22-44.85Z"/>
          <path class="cls-1" d="M1868.3,794.38c.97,5.54-29.96,15.61-69.09,22.48-39.13,6.89-71.65,7.99-72.62,2.46-.96-5.54,29.96-15.6,69.09-22.48,39.14-6.88,71.64-7.99,72.62-2.46Z"/>
          <path class="cls-1" d="M1617.96,768.82c0,5.22-69.52,9.45-155.27,9.45s-155.27-4.23-155.27-9.45,69.52-9.46,155.27-9.46,155.27,4.23,155.27,9.46Z"/>
        </g>
      </g>
    </g>
  </g>
</svg>