<?xml version="1.0" encoding="UTF-8"?>
<svg xmlns="http://www.w3.org/2000/svg" version="1.1" viewBox="0 0 4000 4000">
  <defs>
    <style>
      .cls-1 {
        fill: #344b84;
      }

      .cls-2 {
        fill: #dd6512;
      }

      .cls-3 {
        fill: #e5e6ea;
      }

      .cls-4 {
        fill: #fff;
      }

      .cls-5 {
        fill: #020076;
      }

      .cls-6 {
        fill: #ff882a;
      }

      .cls-7 {
        fill: #b2c7d8;
      }

      .cls-8 {
        fill: #97e0fd;
      }

      .cls-9 {
        display: none;
      }

      .cls-10 {
        fill: #495e9b;
      }
    </style>
  </defs>
  <!-- Generator: Adobe Illustrator 28.7.0, SVG Export Plug-In . SVG Version: 1.2.0 Build 4)  -->
  <g>
    <g id="Layer_1">
      <g>
        <g class="cls-9">
          <rect class="cls-4" width="4000" height="4000"/>
        </g>
        <g>
          <circle class="cls-8" cx="2030" cy="2000" r="1507.5"/>
          <g>
            <g>
              <path class="cls-4" d="M1427.89,1611.03c-.89,0-1.79-.08-2.7-.23l-159-27.17c-6.65-1.13-11.86-6.34-13-12.99s2.04-13.3,7.92-16.59l141.53-79.01-114.55-19.58c-8.66-1.48-14.49-9.7-13-18.36,1.47-8.66,9.68-14.49,18.36-13l159,27.17c6.65,1.13,11.86,6.34,13,12.99s-2.04,13.3-7.92,16.59l-141.53,79.01,114.55,19.58c8.66,1.48,14.49,9.7,13,18.36-1.32,7.75-8.05,13.24-15.66,13.24Z"/>
              <path class="cls-4" d="M1161.88,1387.35c-5.08,0-9.96-2.44-12.99-6.73-3.9-5.51-3.89-12.88,0-18.38l75.21-106.2-87.87,24.9c-8.44,2.38-17.25-2.52-19.65-10.98-2.39-8.45,2.52-17.25,10.98-19.65l131.26-37.19c6.47-1.83,13.44.62,17.33,6.13,3.9,5.51,3.89,12.88,0,18.38l-75.21,106.2,87.87-24.9c8.44-2.4,17.25,2.52,19.65,10.98,2.39,8.45-2.52,17.25-10.98,19.65l-131.26,37.19c-1.44.41-2.89.6-4.34.6Z"/>
              <path class="cls-4" d="M1421.07,1185.61c-.67,0-1.35-.04-2.04-.13l-98.4-12.57c-6.69-.85-12.12-5.84-13.54-12.44s1.47-13.37,7.22-16.9l70.12-43.12-53.67-6.86c-8.72-1.11-14.88-9.08-13.77-17.8,1.11-8.72,9.08-14.89,17.8-13.77l98.4,12.57c6.69.85,12.12,5.84,13.54,12.44,1.42,6.6-1.47,13.37-7.22,16.9l-70.12,43.12,53.67,6.86c8.72,1.11,14.88,9.08,13.77,17.8-1.03,8.03-7.88,13.9-15.77,13.9Z"/>
            </g>
            <g>
              <path class="cls-6" d="M2634.85,2496.16h179.05s-26.15-40.65-11.09-66.28c15.05-25.63,49.12-29.59,64.97,27.45,15.85,57.04,77.64,97.05,151.33,102.2,32.69,1.15,33.08,53.68-11.09,62.59,0,0-85.96,9.9-168.76-53.08h-211.14"/>
              <path class="cls-5" d="M2994.19,2640.7c-29.52,0-95.51-6.09-160.88-53.67h-205.19c-9.93,0-17.97-8.05-17.97-17.97s8.05-17.97,17.97-17.97h211.14c3.93,0,7.75,1.29,10.88,3.67,71.78,54.61,147.05,50.22,155.16,49.59,14.08-3.16,19.83-12.77,19.2-20.49-.5-6.14-4.23-6.27-6.03-6.33-.21,0-.41-.02-.62-.03-82.56-5.77-149.83-52.12-167.39-115.33-6.72-24.17-15.86-31.59-20.21-32.16-3.78-.5-8.51,3.14-11.95,9-7.07,12.04,4.39,37.63,10.71,47.45,3.56,5.53,3.81,12.56.66,18.34-3.15,5.77-9.2,9.36-15.78,9.36h-179.05c-9.93,0-17.97-8.05-17.97-17.97s8.05-17.97,17.97-17.97h150.72c-5.83-17.02-9.12-38.92,1.74-57.4,10.98-18.71,29.14-28.86,47.61-26.44,13.18,1.72,37.23,11.57,50.18,58.18,13.47,48.51,67.71,84.28,134.99,89.07,21.89.94,38.41,17.05,40.24,39.31,1.97,23.96-14.15,51.87-48.76,58.85-.5.1-1,.18-1.5.23-.89.1-6.57.71-15.88.71Z"/>
              <path class="cls-3" d="M2665.78,2548.15c-.88,3.43-1.96,6.95-3.2,10.58-37.43,108.17-264.79,108.97-264.79,108.97l148.83-201.4,26.92-36.43s118.11,19.37,92.23,118.27Z"/>
              <path class="cls-7" d="M2665.78,2548.15c-.88,3.43-1.96,6.95-3.2,10.58-37.43,108.17-264.79,108.97-264.79,108.97l148.83-201.4,8.91-.44s-44.5,101.82-14.78,116.64c29.72,14.86,82.88,1.52,118.27-30.28,2-1.8,4.23-3.12,6.75-4.07Z"/>
              <path class="cls-5" d="M2397.79,2685.67c-9.9,0-17.93-8-17.97-17.91-.03-9.92,7.98-18,17.91-18.04,59.71-.25,220.63-18.15,247.88-96.86,8.6-24.85,7.94-45.1-2.03-61.91-20.21-34.08-72.45-43.25-72.97-43.34-9.77-1.65-16.39-10.9-14.76-20.67,1.63-9.78,10.89-16.38,20.62-14.8,2.81.46,69.03,11.81,97.92,60.28,15.58,26.13,17.32,57.15,5.2,92.2-41.14,118.83-271.91,121.01-281.72,121.04h-.06Z"/>
              <path class="cls-7" d="M1749.88,1953.85c88.88-45.29,160.09-110.75,112.9-311.37,0,0-124.68-211.12,163.9-401.62s402.68-146.83,437.44-89.79c34.76,57.04-30.3,288.79-30.3,288.79,0,0-86.95,515.5-407.13,586.64"/>
              <path class="cls-3" d="M2465.58,1153.78c-54.4-36.99-173.72-38.27-410.38,117.95-288.6,190.53-163.89,401.64-163.89,401.64,41.98,178.51-9.79,249.97-84.28,295.47l-57.16-14.98c88.88-45.3,160.1-110.76,112.92-311.36,0,0-124.7-211.14,163.89-401.64,288.6-190.49,402.68-146.83,437.43-89.79.52.88,1.04,1.76,1.48,2.72Z"/>
              <path class="cls-1" d="M2218.32,1132.21s94.27,39.36,20.29,204.25l106.66-25.55,115.7-44.07c22.42-160.57-64.13-199.1-242.65-134.63Z"/>
              <path class="cls-5" d="M2026.67,2044.48c-8.24,0-15.67-5.7-17.53-14.08-2.15-9.69,3.96-19.29,13.65-21.45,304.58-67.68,392.46-567.05,393.31-572.09.11-.62.25-1.25.42-1.87,24.33-86.7,54.6-237.91,32.26-274.57-7.83-12.85-23.8-29.64-55.45-36.72-53.35-11.92-158.53,1.31-356.73,132.15-113.12,74.67-176.09,164.02-182.13,258.4-4.5,70.25,23.53,118.6,23.81,119.08.92,1.56,1.6,3.26,2.02,5.02,49.7,211.26-29.38,284.18-122.24,331.5-8.84,4.51-19.67,1-24.17-7.86-4.51-8.84-.99-19.67,7.86-24.17,77.43-39.46,149.19-94.29,104.13-288.83-6.53-12.17-31.91-64.65-27.28-137.04,4.73-73.96,42.96-183.62,198.21-286.1,167.58-110.63,296.91-156.8,384.38-137.24,43.97,9.83,66.85,34.3,78.31,53.1,36.68,60.2-16.34,260.09-28.1,302.09-2.28,13.08-24.78,136.47-84.65,270.04-83.23,185.64-199.46,299.82-336.14,330.2-1.31.29-2.62.43-3.91.43Z"/>
              <path class="cls-3" d="M3320.83,2090.07c-.04.08-.04.12-.08.2-35.83,114.36-163.65,215.9-368.2,160.69-11.7-3.48-22.97-6.63-33.83-9.51-198-52.53-263.35-9.67-306.65,93.27-199.36,580.47-795.13,591.65-1099.42,247.89-7.19-8.11-14.62-16.02-22.81-23.13-105.85-92.03-272.7-124.51-331.38-193.65l-6.23-25.16-47.09-189.46-8.87-35.75c0-299.5,345.52-448.33,577.55-253.12,18.21,13.34,36.03,25.12,53.33,35.35,160.49,95.19,279.53,61.23,313.4-36.71,5.75-16.66,8.31-34.23,8.39-51.85.12-22.53-.04-67.59-2.16-125.38-.8-22.01-1.88-45.86-3.36-70.98-7.15-121.23,29.4-186.3,210.35-267.39,123.23-55.24,296.46-106.77,415.26-104.45,55.68,1.08,99.38,13.98,120.43,43.82,65.95,93.59-13.38,182.74-79.33,238.87-61.31,52.25-99.54,132.17-106.05,201.2-1.68,18.13-3.4,36.27-6.51,54.2-13.18,76.05-38.47,146.08-75.85,204.51h805.19c7.27,33.83,5.07,70.82-6.07,106.53Z"/>
              <polygon class="cls-4" points="2498.58 2026.5 3184.3 2026.5 3194.99 1983.54 2527.84 1989.5 2498.58 2026.5"/>
              <path class="cls-4" d="M2669.02,1240.94c-11.18,17.93-28.44,31.44-41.5,32.55-41.58,3.56-321.47,68.3-461.71,170.12-140.2,101.82-108.13,250.29-108.13,250.29l-10.9-10.15c-.8-22.01-1.88-45.86-3.36-70.98-7.15-121.23,29.4-186.3,210.35-267.39,123.23-55.24,296.46-106.77,415.26-104.45Z"/>
              <path class="cls-4" d="M1727.14,1897.7c-5.23,6.95-9.35,10.98-9.35,10.98-333.93-214.62-600.16-1.2-600.16,232.91l-12.5,9.63-8.87-35.75c0-299.5,345.52-448.33,577.55-253.12,18.21,13.34,36.03,25.12,53.33,35.35Z"/>
              <path class="cls-7" d="M3320.75,2090.27c-35.83,114.36-163.65,215.9-368.2,160.69-11.7-3.48-22.97-6.63-33.83-9.51-198-52.53-263.35-9.67-306.65,93.27-199.36,580.47-795.13,591.65-1099.42,247.89-7.19-8.11-14.62-16.02-22.81-23.13-105.85-92.03-272.7-124.51-331.38-193.65l-6.23-25.16,35.39-8.07c497.87,289.84,986.8,493.33,1392.32-110.31,30.55-45.47,84.41-69.4,138.63-61.64,175.09,25.06,547.94,61.72,602.18-70.4Z"/>
              <path class="cls-10" d="M3320.75,2090.27c-.44,1.44-.92,2.88-1.4,4.31-.48,1.44-.96,2.88-1.48,4.31s-1.04,2.88-1.6,4.27c-.6,1.6-1.2,3.16-1.8,4.71-.52,1.28-1.08,2.56-1.6,3.83-.6,1.4-1.2,2.8-1.84,4.23-2.64,5.91-5.55,11.78-8.71,17.57-.56,1.08-1.16,2.12-1.76,3.2-1.52,2.72-3.12,5.43-4.79,8.11-.76,1.24-1.56,2.52-2.36,3.75-8.99,13.98-19.53,27.28-31.64,39.63-1.32,1.36-2.68,2.72-4.07,4.03-7.51,7.31-15.58,14.22-24.25,20.73-3.12,2.32-6.27,4.59-9.55,6.79-1.76,1.2-3.52,2.4-5.31,3.51-1.52,1-3.08,1.96-4.63,2.92-2.12,1.28-4.23,2.56-6.39,3.8-1.88,1.08-3.8,2.16-5.71,3.16-2.08,1.12-4.19,2.24-6.31,3.31-1.64.84-3.32,1.64-5.03,2.44-3.84,1.84-7.71,3.59-11.7,5.27-1.24.56-2.52,1.08-3.83,1.56-1.32.56-2.68,1.08-4.03,1.6-1.92.76-3.87,1.48-5.87,2.16-2.08.76-4.15,1.48-6.27,2.2-4.95,1.6-9.99,3.08-15.14,4.47-1.64.44-3.28.88-4.95,1.28-.32.08-.64.16-1,.24-1.52.4-3.04.76-4.55,1.08-3.28.76-6.55,1.44-9.87,2.08-2.2.44-4.39.84-6.63,1.2-3.88.64-7.79,1.24-11.78,1.76-1.4.2-2.84.36-4.27.52-2.84.32-5.63.6-8.51.84-1.8.2-3.59.32-5.39.44-1.76.12-3.52.24-5.23.36-1.72.08-3.44.16-5.19.24-.68,0-1.36.04-2.04.08-1.72.04-3.51.12-5.27.12-35.47.68-74.34-4.07-116.44-15.42-11.7-3.48-22.97-6.63-33.83-9.51,66.55-12.38,115.16-32.91,150.59-57.2,117.08-80.09,90.03-200.72,90.03-200.72h167.56c7.27,33.87,5.07,70.94-6.15,106.73Z"/>
              <path class="cls-1" d="M3320.75,2090.27c-.44,1.44-.92,2.88-1.4,4.31-.48,1.44-.96,2.88-1.48,4.31s-1.04,2.88-1.6,4.27c-.6,1.6-1.2,3.16-1.8,4.71-.52,1.28-1.08,2.56-1.6,3.83-.6,1.4-1.2,2.8-1.84,4.23-2.64,5.91-5.55,11.78-8.71,17.57-.56,1.08-1.16,2.12-1.76,3.2-1.52,2.72-3.12,5.43-4.79,8.11-.76,1.24-1.56,2.52-2.36,3.75-8.99,13.98-19.53,27.28-31.64,39.63-1.32,1.36-2.68,2.72-4.07,4.03-7.51,7.31-15.58,14.22-24.25,20.73-3.12,2.32-6.27,4.59-9.55,6.79-1.76,1.2-3.52,2.4-5.31,3.51-1.52,1-3.08,1.96-4.63,2.92-2.12,1.28-4.23,2.56-6.39,3.8-1.88,1.08-3.8,2.16-5.71,3.16-2.08,1.12-4.19,2.24-6.31,3.31-1.64.84-3.32,1.64-5.03,2.44-3.84,1.84-7.71,3.59-11.7,5.27-1.24.56-2.52,1.08-3.83,1.56-1.32.56-2.68,1.08-4.03,1.6-1.92.76-3.87,1.48-5.87,2.16-2.08.76-4.15,1.48-6.27,2.2-4.95,1.6-9.99,3.08-15.14,4.47-1.64.44-3.28.88-4.95,1.28-.32.08-.64.16-1,.24-1.52.4-3.04.76-4.55,1.08-3.28.76-6.55,1.44-9.87,2.08-2.2.44-4.39.84-6.63,1.2-3.88.64-7.79,1.24-11.78,1.76-1.4.2-2.84.36-4.27.52-2.84.32-5.63.6-8.51.84-1.8.2-3.59.32-5.39.44-1.76.12-3.52.24-5.23.36-1.72.08-3.44.16-5.19.24-.68,0-1.36.04-2.04.08-1.72.04-3.51.12-5.27.12-35.47.68-74.34-4.07-116.44-15.42-11.7-3.48-22.97-6.63-33.83-9.51,66.55-12.38,115.16-32.91,150.59-57.2,120.07-4.63,224.65-28.68,251.45-93.99Z"/>
              <path class="cls-10" d="M2533.65,1263.38c97.76,10.86,98.19,108.84,34.04,189.69-32.19,40.57-50.8,90.23-55.4,141.81-19.99,224.4-42.02,499.98-264.76,551.2,122.02-6.68,234.85-57.71,318.28-250.59,0,0,31.16-126.72,48.96-223.88,17.81-97.16,130.15-170.65,155.54-208.52,25.38-37.87,89.52-179.1-43.76-215.55,0,0-94.04-20.61-192.89,15.84Z"/>
              <path class="cls-5" d="M2009.66,2830.23c-189.17,0-376.88-84.77-510.48-235.69-5.94-6.69-13.11-14.49-21.14-21.47-51.41-44.69-120.05-75.84-180.62-103.33-64.92-29.46-120.99-54.91-152.68-92.26-1.79-2.11-3.07-4.61-3.74-7.3l-62.19-250.37c-.35-1.42-.53-2.87-.53-4.33,0-143.85,76.35-265.27,204.23-324.8,132.46-61.67,286.59-39.6,402.39,57.53,99.52,72.78,195.32,102.42,262.91,81.29,36.69-11.46,62.88-37.18,75.74-74.37,4.83-14.01,7.32-29.51,7.4-46.06.18-35.01-.3-106.92-5.48-195.22-8.19-138.75,43.43-205.31,220.94-284.84,175.16-78.54,481.48-162.8,557.73-54.58,56.36,79.98,28.64,168.43-82.37,262.91-54.14,46.13-93.32,120.4-99.8,189.2-1.58,17.08-3.38,36.47-6.7,55.59-11.86,68.44-32.68,130-62.02,183.46h773.65c8.47,0,15.79,5.91,17.57,14.19,16.81,78.17-13.2,167.48-76.45,227.53-45.16,42.88-146.81,107.83-320.16,61.03-.14-.04-.28-.08-.42-.12-216.01-64.01-276.91-25.7-318.57,72.94-90.04,261.67-266.65,431.09-497.34,477.11-40.33,8.04-81.14,11.97-121.86,11.97ZM1174.84,2357.25c27.4,29.81,80.91,54.09,137.45,79.75,62.8,28.5,133.98,60.8,189.34,108.93,9.64,8.38,18.14,17.64,24.46,24.77,153.93,173.88,383.2,255.26,598.4,212.3,217.8-43.44,384.92-204.71,470.57-454.11.13-.38.28-.76.43-1.13,55.59-132.13,150.32-156.76,361.94-94.08,115.84,31.21,217.32,12.58,285.83-52.45,50.51-47.95,76.47-117.07,68.48-179.71h-790.04c-6.57,0-12.61-3.58-15.77-9.34-3.15-5.76-2.92-12.79.62-18.32,35.48-55.46,60.14-122.05,73.29-197.9,3.08-17.71,4.8-36.35,6.32-52.79,7.44-78.84,50.46-160.53,112.29-213.22,95.78-81.5,120.73-151.77,76.29-214.83-52.41-74.37-307.9-25.56-513.64,66.68-178.8,80.12-206.13,141.86-199.75,249.93,5.24,89.31,5.72,162.08,5.54,197.51-.1,20.49-3.25,39.88-9.37,57.62-16.5,47.73-51.65,82.16-98.99,96.95-79.87,24.97-184.77-5.92-295.35-86.95-.32-.23-.64-.48-.95-.74-105.05-88.38-244.74-108.63-364.55-52.85-114.22,53.17-182.68,161.49-183.44,290.04l60.6,243.95Z"/>
              <path class="cls-5" d="M2536.85,1993.23c-84.54,129.95-224.8,188.45-376.94,168.77-6.01-.7-10.31-6.13-9.61-12.14.69-5.93,6.01-10.2,11.91-9.64,34.19,2.81,68.54,2.26,102.08-2.83,66.82-9.77,130.01-39.38,179.07-85.63,24.49-22.84,45.58-49.28,63.22-77.9,13.21-20.07,43.02-1.28,30.29,19.37h0Z"/>
              <path class="cls-6" d="M1005.11,2388.69c-19.33-7.47-37.87-18.89-54.44-34.35,79.57,8.47,118.39-25.28,147.91-100.74,2.32-5.87,4.55-12.02,6.75-18.41-128.38,75.45-265.19-60.27-376.71,38.35-10.63-72.58,11.06-120.15,59.28-147.19,20.77-11.7,46.45-19.53,76.61-23.93,99.22-12.14,194.81,48.69,231.76,13.06,0,0,10.7,35.23,42.18,67.83,4.95,5.11,10.39,10.18,16.42,15.02,15.42,12.46,34.47,23.49,57.84,30.64,5.95,136.73-110.8,197.2-207.59,159.74Z"/>
              <path class="cls-2" d="M1005.11,2388.69c.44-3.67.8-5.83.8-5.83,96.27-14.5,171-49.57,142.64-182.94l6.31-1.6c15.42,12.46,34.47,23.49,57.84,30.64,5.95,136.73-110.8,197.2-207.59,159.74Z"/>
              <path class="cls-2" d="M1131.89,2191.13l-20.97,59.08s-4.51,1.28-12.34,3.39c2.32-5.87,4.55-12.02,6.75-18.41-128.38,75.45-265.19-60.27-376.71,38.35-10.63-72.58,11.06-120.15,59.28-147.19,0,0-28.76,53.33-8.15,58.84,20.57,5.55,246.77,66.95,352.15,5.95Z"/>
              <path class="cls-5" d="M1063.1,2417.7c-44.66,0-89.38-17.29-124.69-50.21-5.66-5.27-7.3-13.57-4.1-20.61,3.21-7.04,10.63-11.22,18.25-10.42,59.2,6.3,92.87-11.29,119.85-67.58-53.67,15.76-107.61,5.43-156.38-3.9-66.44-12.71-123.82-23.7-175.5,22.01-4.94,4.37-11.88,5.69-18.09,3.42-6.2-2.27-10.65-7.75-11.61-14.28-8.15-55.77,1.49-100.56,28.67-133.13,25.55-30.63,66.73-50.27,122.4-58.38,50.2-6.11,99.11,4.99,138.42,13.94,38.02,8.64,70.86,16.11,83.44,3.98,4.51-4.35,10.94-6.04,16.99-4.46,6.05,1.57,10.86,6.18,12.68,12.16.96,3.09,24.89,77.18,104.53,101.54,7.28,2.23,12.37,8.8,12.7,16.41,3.46,79.52-32.58,144.55-96.39,173.96-22.7,10.46-46.93,15.56-71.19,15.56ZM1007.53,2370.29c35.97,15.25,76.27,15.54,111.71-.79,47.65-21.96,74.82-68.1,75.7-127.64-62.55-23.82-94.06-72.82-107.52-100.7-25.37,8.29-58.3.8-95.05-7.56-38.49-8.76-82.12-18.67-125.68-13.36-46.23,6.74-79.86,22.16-99.57,45.78-15.73,18.86-23.4,43.3-23.19,74.17,57.44-33.76,119.03-21.97,178.87-10.52,60.68,11.61,117.99,22.58,173.4-10,6.5-3.83,14.67-3.17,20.49,1.58,5.83,4.77,8.07,12.65,5.62,19.77-23.34,67.81-53.49,116.52-114.78,129.27Z"/>
              <path class="cls-5" d="M1328.04,2008.55c12.9,43.57,66.71,55.16,97.8,25.64,9.14-8.9,14.82-22.88,16.96-39.36,1.52-10.55,11.31-17.86,21.85-16.34,22.44,3.78,18.58,34.65,16,52.1-7.54,39.81-45.09,69.17-84.54,72.19-53.24,6.04-105.42-33.35-105.96-88.71-.11-22.67,31.61-26.99,37.88-5.53h0Z"/>
            </g>
          </g>
        </g>
      </g>
    </g>
  </g>
</svg>